<?xml version="1.0" encoding="UTF-8"?>
<svg id="Layer_1" data-name="Layer 1" xmlns="http://www.w3.org/2000/svg" viewBox="0 0 753.2 596.85">
  <defs>
    <style>
      .cls-1, .cls-2, .cls-3 {
        stroke-width: 0px;
      }

      .cls-2 {
        fill: #1d63ed;
      }
      
      .cls-3 {
        fill: #fff;
      }
    </style>
  </defs>
  <path class="cls-2" d="M107.91,288.09h81.7v-81.7h-81.7v81.7ZM213.46,288.09h81.7v-81.7h-81.7v81.7ZM319.01,288.09h81.7v-81.7h-81.7v81.7ZM424.55,206.39v81.7h81.7v-81.7h-81.7ZM2.36,288.09h81.7v-81.7H2.36v81.7ZM107.91,184.89h81.7v-81.7h-81.7v81.7ZM213.46,184.89h81.7v-81.7h-81.7v81.7ZM319.01,184.89h81.7v-81.7h-81.7v81.7ZM319.01,81.7h81.7V0h-81.7v81.7Z"/>
  <rect class="cls-2" x=".2" y="311" width="594" height="123"/>
  <rect class="cls-3" x="95" y="390.65" width="41.2" height="41.2"/>
  <rect class="cls-1" x="103.8" y="399.37" width="23.6" height="23.75"/>
  <rect class="cls-2" x="540.2" y="288" width="27" height="23"/>
  <rect class="cls-2" x="674.2" y="237" width="54" height="63"/>
  <rect class="cls-2" x="674.2" y="300" width="32" height="16"/>
  <rect class="cls-2" x="728.2" y="252" width="25" height="25"/>
  <rect class="cls-2" x="571.7" y="178.5" width="54" height="63" transform="translate(388.7 808.7) rotate(-90)"/>
  <rect class="cls-2" x="622.2" y="213" width="32" height="16" transform="translate(417.2 859.2) rotate(-90)"/>
  <rect class="cls-2" x="582.2" y="158" width="25" height="25" transform="translate(424.2 765.2) rotate(-90)"/>
  <rect class="cls-2" x="592.2" y="330" width="27" height="23" transform="translate(947.2 -264.2) rotate(90)"/>
  <rect class="cls-2" x="567.2" y="237" width="107" height="91"/>
  <polygon class="cls-2" points="553 433.65 .43 431.85 0 474.65 41.2 474.65 41.2 515.85 82.13 515.62 82 555.65 164.2 555.65 164.2 596.85 389 596.85 389 555.65 471 555.65 471 515.65 512.43 515.62 512 474.65 553 474.65 553 433.65"/>
</svg>